<svg width="20" height="20" viewBox="0 0 20 20">
    <path d="M14.5125 11.985C14.2642 11.8608 13.0467 11.2625 12.82 11.1791C12.5933 11.0966 12.4283 11.0558 12.2625 11.3041C12.0975 11.5508 11.6233 12.1091 11.4792 12.2741C11.3342 12.44 11.19 12.46 10.9425 12.3366C10.695 12.2116 9.89667 11.9508 8.95083 11.1075C8.215 10.4508 7.7175 9.63997 7.57333 9.39164C7.42917 9.14414 7.5575 9.00997 7.68167 8.88664C7.79333 8.77581 7.92917 8.59747 8.05333 8.45331C8.1775 8.30831 8.21833 8.20497 8.30083 8.03914C8.38417 7.87414 8.3425 7.72997 8.28 7.60581C8.21833 7.48164 7.72333 6.26247 7.51667 5.76664C7.31583 5.28414 7.11167 5.34997 6.96 5.34164C6.815 5.33497 6.65 5.33331 6.485 5.33331C6.32 5.33331 6.05167 5.39497 5.825 5.64331C5.5975 5.89081 4.95833 6.48997 4.95833 7.70914C4.95833 8.92747 5.845 10.105 5.96917 10.2708C6.09333 10.4358 7.715 12.9375 10.1992 14.01C10.7908 14.265 11.2517 14.4175 11.6108 14.5308C12.2042 14.72 12.7442 14.6933 13.1708 14.6291C13.6458 14.5583 14.6358 14.03 14.8425 13.4516C15.0483 12.8733 15.0483 12.3775 14.9867 12.2741C14.925 12.1708 14.76 12.1091 14.5117 11.985H14.5125ZM9.99417 18.1541H9.99083C8.51536 18.1544 7.06698 17.7578 5.7975 17.0058L5.4975 16.8275L2.37917 17.6458L3.21167 14.6058L3.01583 14.2941C2.19095 12.9811 1.75441 11.4615 1.75667 9.91081C1.75833 5.36914 5.45333 1.67414 9.9975 1.67414C12.1975 1.67414 14.2658 2.53247 15.8208 4.08914C16.5878 4.85296 17.1957 5.76128 17.6094 6.76155C18.0231 7.76183 18.2343 8.83421 18.2308 9.91664C18.2292 14.4583 14.5342 18.1541 9.99417 18.1541V18.1541ZM17.0042 2.90664C16.086 1.98241 14.9935 1.24959 13.7901 0.75064C12.5866 0.251693 11.2961 -0.00345791 9.99333 -2.68872e-05C4.53167 -2.68872e-05 0.085 4.44581 0.0833333 9.90997C0.0808025 11.6489 0.536979 13.3578 1.40583 14.8641L0 20L5.25333 18.6216C6.70656 19.4134 8.33508 19.8283 9.99 19.8283H9.99417C15.4558 19.8283 19.9025 15.3825 19.9042 9.91747C19.9082 8.6152 19.654 7.32506 19.1562 6.12167C18.6584 4.91828 17.927 3.82553 17.0042 2.90664" fill="currentColor"/>
</svg>
