<svg width="20" height="20" viewBox="0 0 20 20" xmlns="http://www.w3.org/2000/svg">
    <path fill="currentColor" d="M8.75 4.58333C8.75 4.47282 8.7939 4.36684 8.87204 4.2887C8.95018 4.21056 9.05616 4.16666 9.16667 4.16666H10.8333C10.9438 4.16666 11.0498 4.21056 11.128 4.2887C11.2061 4.36684 11.25 4.47282 11.25 4.58333C11.25 4.69384 11.2061 4.79982 11.128 4.87796C11.0498 4.9561 10.9438 5 10.8333 5H9.16667C9.05616 5 8.95018 4.9561 8.87204 4.87796C8.7939 4.79982 8.75 4.69384 8.75 4.58333Z"/>
    <path fill="currentColor" fill-rule="evenodd" clip-rule="evenodd" d="M13.9017 7.71667C13.7504 7.83542 13.5542 7.93042 13.3175 8.0075C13.3628 8.4704 13.3107 8.93764 13.1646 9.3792C13.0185 9.82076 12.7816 10.2268 12.4691 10.5714C12.1566 10.9159 11.7755 11.1912 11.3503 11.3796C10.9251 11.568 10.4651 11.6653 10 11.6653C9.5349 11.6653 9.07495 11.568 8.64971 11.3796C8.22448 11.1912 7.84338 10.9159 7.53092 10.5714C7.21846 10.2268 6.98155 9.82076 6.83544 9.3792C6.68932 8.93764 6.63723 8.4704 6.68251 8.0075C6.44584 7.93042 6.24959 7.83542 6.09876 7.71667C5.90293 7.5625 5.77167 7.35667 5.75626 7.10917C5.74167 6.87958 5.83251 6.68458 5.92334 6.54708C6.01301 6.41685 6.11949 6.29902 6.24001 6.19667C6.29834 6.14542 6.35584 6.1 6.40918 6.06042C6.39334 5.975 6.37584 5.87167 6.35834 5.75208C6.28453 5.22687 6.24832 4.69704 6.25001 4.16667C6.25001 4.03583 6.30584 3.93833 6.33168 3.89708C6.36418 3.845 6.40251 3.80042 6.43751 3.76458C6.50709 3.69167 6.59709 3.6175 6.69584 3.54625C6.89584 3.40125 7.17084 3.23833 7.49751 3.08583C8.14876 2.78167 9.04334 2.5 10 2.5C10.9571 2.5 11.8513 2.78208 12.5025 3.08583C12.7833 3.21428 13.0517 3.36841 13.3042 3.54625C13.4029 3.6175 13.4929 3.69208 13.5625 3.76458C13.5975 3.80042 13.6358 3.845 13.6683 3.89708C13.6942 3.93833 13.75 4.03583 13.75 4.16667C13.75 4.83417 13.6958 5.375 13.6417 5.75208C13.6242 5.87167 13.6067 5.975 13.5908 6.06042C13.6442 6.1 13.7021 6.14542 13.7604 6.19667C13.8646 6.28792 13.9838 6.40667 14.0767 6.54708C14.1679 6.68458 14.2583 6.87958 14.2442 7.10958C14.2288 7.35667 14.0975 7.5625 13.9017 7.71667ZM7.08418 4.29917C7.09043 4.86083 7.13709 5.315 7.18334 5.6325C7.19418 5.7075 7.20501 5.77417 7.21501 5.83333H12.785C12.7954 5.77417 12.8058 5.70708 12.8167 5.6325C12.8625 5.315 12.9096 4.86083 12.9158 4.29917C12.8834 4.27175 12.8499 4.24562 12.8154 4.22083C12.665 4.11208 12.4367 3.975 12.15 3.84125C11.5738 3.57208 10.8017 3.33333 10 3.33333C9.19834 3.33333 8.42626 3.57208 7.85001 3.84125C7.56334 3.975 7.33501 4.11208 7.18501 4.22042C7.15037 4.24546 7.11673 4.27187 7.08418 4.29958V4.29917ZM6.99501 6.66667L6.99376 6.6675C6.92184 6.71542 6.85296 6.76774 6.78751 6.82417C6.71334 6.88917 6.65418 6.9525 6.61834 7.0075C6.60981 7.01987 6.60216 7.03282 6.59543 7.04625C6.60133 7.05163 6.60744 7.05678 6.61376 7.06167C6.67626 7.11083 6.81042 7.18292 7.07209 7.25417C7.12376 7.26833 7.17917 7.28167 7.23834 7.295L7.24209 7.29583C7.45126 7.34208 7.70876 7.38333 8.02251 7.41583C8.46709 7.46208 9.02667 7.4925 9.72584 7.49917L10 7.5C11.3446 7.5 12.2142 7.41625 12.7583 7.29583L12.7617 7.295C12.8213 7.28167 12.8767 7.26833 12.9283 7.25417C13.1896 7.18333 13.3242 7.11083 13.3863 7.06167C13.3926 7.05678 13.3987 7.05163 13.4046 7.04625C13.398 7.03283 13.3905 7.01989 13.3821 7.0075C13.3336 6.9394 13.2766 6.87778 13.2125 6.82417C13.1472 6.76775 13.0785 6.71542 13.0067 6.6675L13.005 6.66667H6.99501ZM9.88668 8.33333C10.9875 8.33333 11.8408 8.275 12.495 8.17333C12.5165 8.51305 12.4684 8.85358 12.3537 9.17405C12.2389 9.49452 12.0599 9.78818 11.8277 10.037C11.5954 10.2859 11.3148 10.4847 11.003 10.6212C10.6912 10.7578 10.3548 10.8293 10.0144 10.8312C9.67401 10.8332 9.33681 10.7656 9.02346 10.6326C8.7101 10.4997 8.42721 10.3041 8.1921 10.058C7.957 9.81181 7.77464 9.52023 7.65621 9.2011C7.53777 8.88198 7.48575 8.54202 7.50334 8.20208C8.11293 8.28625 8.89418 8.33333 9.88668 8.33333ZM6.69917 16.1988C6.67746 16.3538 6.6666 16.5101 6.66668 16.6667V17.0833C6.66672 17.1749 6.63658 17.264 6.58092 17.3367C6.52527 17.4095 6.44719 17.4619 6.35876 17.4858C6.27034 17.5097 6.17651 17.5038 6.09177 17.469C6.00704 17.4342 5.93613 17.3725 5.89001 17.2933C5.60919 17.4457 5.28058 17.4843 4.97209 17.4013L4.16709 17.1854C3.84699 17.0995 3.57412 16.89 3.40847 16.6029C3.24282 16.3158 3.19796 15.9747 3.28376 15.6546L3.60709 14.4471C3.69293 14.1269 3.90242 13.8539 4.1895 13.6882C4.47658 13.5225 4.81773 13.4776 5.13793 13.5633L5.94292 13.7788C6.22292 13.8538 6.45542 14.0183 6.61709 14.2333C7.00281 13.6964 7.51089 13.2592 8.09926 12.9577C8.68762 12.6563 9.33934 12.4994 10.0004 12.5C10.6612 12.4996 11.3125 12.6565 11.9005 12.9577C12.4886 13.259 12.9965 13.696 13.3821 14.2325C13.5496 14.0104 13.7866 13.8508 14.0554 13.7792L14.8604 13.5638C15.1806 13.478 15.5217 13.5228 15.8087 13.6885C16.0958 13.8541 16.3053 14.127 16.3913 14.4471L16.715 15.655C16.7575 15.8136 16.7683 15.979 16.7468 16.1417C16.7254 16.3045 16.6721 16.4614 16.59 16.6035C16.5079 16.7457 16.3986 16.8703 16.2683 16.9702C16.1381 17.0701 15.9894 17.1434 15.8308 17.1858L15.0263 17.4013C14.7183 17.4843 14.3902 17.4462 14.1096 17.2946C14.0633 17.3736 13.9923 17.4352 13.9075 17.4698C13.8228 17.5044 13.729 17.5102 13.6406 17.4861C13.5522 17.4621 13.4743 17.4096 13.4187 17.3368C13.3632 17.264 13.3332 17.1749 13.3333 17.0833V16.6667C13.3334 16.5101 13.3226 16.3538 13.3008 16.1988L11.1325 16.78C11.0319 16.9954 10.8718 17.1777 10.6712 17.3054C10.4707 17.4331 10.2378 17.5009 10 17.5009C9.76222 17.5009 9.52936 17.4331 9.32877 17.3054C9.12817 17.1777 8.96816 16.9954 8.86751 16.78L6.69917 16.1988ZM8.80001 15.8988C8.85593 15.7088 8.95608 15.5348 9.09224 15.391C9.22841 15.2473 9.39671 15.1378 9.58334 15.0717V13.3592C8.99891 13.4331 8.44444 13.6603 7.97629 14.0179C7.50814 14.3755 7.14298 14.8506 6.91793 15.395L8.80001 15.8988ZM13.0821 15.3946C12.857 14.8503 12.4918 14.3752 12.0236 14.0177C11.5555 13.6602 11.0011 13.433 10.4167 13.3592V15.0713C10.7933 15.2046 11.0875 15.5129 11.2 15.8992L13.0821 15.395V15.3946ZM13.9767 15.0946C13.9625 15.0417 13.9589 14.9866 13.966 14.9323C13.9731 14.8781 13.9909 14.8258 14.0182 14.7784C14.0456 14.731 14.082 14.6894 14.1254 14.6561C14.1688 14.6228 14.2184 14.5983 14.2713 14.5842L15.0763 14.3683C15.183 14.3398 15.2966 14.3548 15.3922 14.4101C15.4879 14.4653 15.5576 14.5563 15.5863 14.6629L15.91 15.8704C15.9242 15.9233 15.9278 15.9784 15.9207 16.0327C15.9136 16.0869 15.8958 16.1392 15.8684 16.1866C15.8411 16.234 15.8047 16.2756 15.7613 16.3089C15.7178 16.3422 15.6683 16.3667 15.6154 16.3808L14.8104 16.5967C14.7575 16.6108 14.7024 16.6144 14.6481 16.6073C14.5938 16.6001 14.5415 16.5823 14.4941 16.5549C14.4467 16.5276 14.4051 16.4911 14.3718 16.4476C14.3385 16.4042 14.3141 16.3546 14.3 16.3017L13.9767 15.0946ZM4.92251 14.3683C4.86962 14.3541 4.81445 14.3504 4.76014 14.3575C4.70584 14.3646 4.65346 14.3824 4.60602 14.4097C4.55857 14.4371 4.51699 14.4735 4.48364 14.517C4.45029 14.5604 4.42584 14.61 4.41168 14.6629L4.08834 15.87C4.07416 15.9229 4.07054 15.978 4.07767 16.0322C4.0848 16.0865 4.10255 16.1388 4.1299 16.1862C4.15726 16.2336 4.19368 16.2752 4.2371 16.3085C4.28051 16.3418 4.33006 16.3663 4.38293 16.3804L5.18793 16.5963C5.24078 16.6104 5.29591 16.6141 5.35017 16.6069C5.40443 16.5998 5.45676 16.582 5.50415 16.5547C5.55155 16.5273 5.5931 16.4909 5.62642 16.4475C5.65974 16.4041 5.68418 16.3545 5.69834 16.3017L6.02167 15.0942C6.03592 15.0413 6.03959 14.9861 6.03249 14.9318C6.02539 14.8775 6.00765 14.8251 5.98029 14.7777C5.95293 14.7302 5.91648 14.6886 5.87304 14.6553C5.82959 14.622 5.78 14.5975 5.72709 14.5833L4.92209 14.3679L4.92251 14.3683ZM10.4167 16.25C10.4167 16.3605 10.3728 16.4665 10.2946 16.5446C10.2165 16.6228 10.1105 16.6667 10 16.6667C9.8895 16.6667 9.78352 16.6228 9.70538 16.5446C9.62724 16.4665 9.58334 16.3605 9.58334 16.25C9.58334 16.1395 9.62724 16.0335 9.70538 15.9554C9.78352 15.8772 9.8895 15.8333 10 15.8333C10.1105 15.8333 10.2165 15.8772 10.2946 15.9554C10.3728 16.0335 10.4167 16.1395 10.4167 16.25Z"/>
</svg>