<svg width="20" height="20" viewBox="0 0 41 34">
    <path d="M0.59668 7.4375H18.2071L19.5617 10.625H1.95132L0.59668 7.4375ZM2.40287 13.8125H20.0133L21.3679 17H3.75752L2.40287 13.8125ZM31.7535 30.8125C33.2526 30.8125 34.4628 29.3887 34.4628 27.625C34.4628 25.8612 33.2526 24.4375 31.7535 24.4375C30.2544 24.4375 29.0442 25.8612 29.0442 27.625C29.0442 29.3887 30.2544 30.8125 31.7535 30.8125ZM13.6916 30.8125C15.1907 30.8125 16.4009 29.3887 16.4009 27.625C16.4009 25.8612 15.1907 24.4375 13.6916 24.4375C12.1924 24.4375 10.9823 25.8612 10.9823 27.625C10.9823 29.3887 12.1924 30.8125 13.6916 30.8125ZM35.3659 8.5L40.7845 17V27.625H37.1721C37.1721 31.1525 34.7518 34 31.7535 34C28.7552 34 26.3349 31.1525 26.3349 27.625H19.1102C19.1102 31.1525 16.6718 34 13.6916 34C10.6933 34 8.273 31.1525 8.273 27.625H4.66061V20.1875H8.273V23.375H9.64571C10.6391 22.0787 12.0841 21.25 13.6916 21.25C15.2991 21.25 16.744 22.0787 17.7375 23.375H26.3349V4.25H4.66061C4.66061 1.89125 6.26813 0 8.273 0H29.9473V8.5H35.3659Z" fill="currentColor" />
</svg>
