<svg width="20" height="20" viewBox="0 0 34 34">
    <path d="M0.8125 0V31.5714H21.2155V29.1429H3.36288V2.42857H16.1148V9.71429H23.7659V12.1429H26.3163V8.01429L25.9337 7.65L18.2826 0.364286L17.9 0H0.8125V0ZM18.6652 4.12857L21.9806 7.28571H18.6652V4.12857ZM5.91326 12.1429V14.5714H21.2155V12.1429H5.91326ZM27.5915 14.5714V17C25.4237 17.3643 23.7659 19.0643 23.7659 21.25C23.7659 23.6786 25.6787 25.5 28.2291 25.5H29.5043C30.5244 25.5 31.4171 26.35 31.4171 27.3214C31.4171 28.2929 30.5244 29.1429 29.5043 29.1429H25.0411V31.5714H27.5915V34H30.1419V31.5714C32.3097 31.2071 33.9674 29.5071 33.9674 27.3214C33.9674 24.8929 32.0546 23.0714 29.5043 23.0714H28.2291C27.2089 23.0714 26.3163 22.2214 26.3163 21.25C26.3163 20.2786 27.2089 19.4286 28.2291 19.4286H32.6922V17H30.1419V14.5714H27.5915ZM5.91326 18.2143V20.6429H14.8396V18.2143H5.91326ZM17.39 18.2143V20.6429H21.2155V18.2143H17.39ZM5.91326 23.0714V25.5H14.8396V23.0714H5.91326ZM17.39 23.0714V25.5H21.2155V23.0714H17.39Z" fill="currentColor" />
</svg>
