<svg width="20" height="20" viewBox="0 0 35 34">
    <path d="M25.6432 0C20.9462 0 17.1033 3.74236 17.1033 8.31635C17.1033 9.69132 17.6484 11.094 18.3487 12.6478C19.0902 14.2644 19.9217 15.8403 20.8395 17.3687C21.9815 19.2759 23.1984 21.1397 24.4874 22.9559L25.6432 24.6025L26.8003 22.9559C26.8003 22.9559 28.635 20.4125 30.4469 17.3701C31.3647 15.8413 32.1962 14.2648 32.9377 12.6478C33.6379 11.094 34.1831 9.69132 34.1831 8.31635C34.1831 3.74236 30.3401 0 25.6432 0ZM11.3659 2.68618L0.0234375 7.40709V34L11.4541 29.1932L22.8406 33.3513L34.1831 28.629V16.5454C33.3006 18.1701 32.3509 19.7593 31.3364 21.3093V26.8105L24.2198 29.7559V27.5035L22.129 24.5582C21.8746 24.1985 21.6227 23.8372 21.3732 23.4743V29.8848L12.8333 26.7662V6.15133L14.3904 6.71545C14.5232 5.79223 14.7772 4.88945 15.1462 4.02927L11.3659 2.68618ZM25.6432 2.77212C28.8015 2.77212 31.3364 5.24068 31.3364 8.31635C31.3364 8.85275 30.992 10.1182 30.3572 11.5223C29.7238 12.9236 28.8285 14.5162 27.956 15.9826C26.7946 17.9314 26.2936 18.6245 25.6432 19.5781C24.9927 18.6245 24.4917 17.9314 23.3303 15.9826C22.4578 14.5162 21.5625 12.9236 20.9277 11.5209C20.2943 10.121 19.9499 8.85275 19.9499 8.31635C19.9499 5.24068 22.4848 2.77212 25.6432 2.77212ZM9.98666 6.23726V26.8119L2.87007 29.7573V9.2256L9.98666 6.23726ZM25.6432 6.23726C25.0769 6.23726 24.5339 6.45631 24.1335 6.84621C23.7331 7.23611 23.5082 7.76494 23.5082 8.31635C23.5082 8.86776 23.7331 9.39658 24.1335 9.78648C24.5339 10.1764 25.0769 10.3954 25.6432 10.3954C26.2094 10.3954 26.7524 10.1764 27.1528 9.78648C27.5532 9.39658 27.7781 8.86776 27.7781 8.31635C27.7781 7.76494 27.5532 7.23611 27.1528 6.84621C26.7524 6.45631 26.2094 6.23726 25.6432 6.23726Z" fill="currentColor" />
</svg>
