<svg width="24" height="24" viewBox="0 0 24 24">
    <path fill="currentColor" d="M16.1458 12.5C18.75 12.5 20.8333 14.5833 20.8333 17.1875C20.8333 18.1042 20.5729 18.9687 20.1146 19.6875L23.3229 22.9167L21.875 24.3646L18.625 21.1667C17.9062 21.6146 17.0521 21.875 16.1458 21.875C13.5417 21.875 11.4583 19.7917 11.4583 17.1875C11.4583 14.5833 13.5417 12.5 16.1458 12.5ZM16.1458 14.5833C15.4552 14.5833 14.7928 14.8577 14.3044 15.3461C13.816 15.8345 13.5417 16.4968 13.5417 17.1875C13.5417 17.8782 13.816 18.5405 14.3044 19.0289C14.7928 19.5173 15.4552 19.7917 16.1458 19.7917C16.8365 19.7917 17.4989 19.5173 17.9873 19.0289C18.4756 18.5405 18.75 17.8782 18.75 17.1875C18.75 16.4968 18.4756 15.8345 17.9873 15.3461C17.4989 14.8577 16.8365 14.5833 16.1458 14.5833ZM5.20833 3.125H19.7917C20.9479 3.125 21.875 4.05208 21.875 5.20833V13.5729C21.3542 12.7396 20.6354 12.0208 19.7917 11.4583V5.20833H5.20833V19.7917H9.89583C10.2187 20.5729 10.6875 21.2708 11.2604 21.875H5.20833C4.05208 21.875 3.125 20.9479 3.125 19.7917V5.20833C3.125 4.05208 4.05208 3.125 5.20833 3.125ZM7.29167 7.29167H17.7083V9.375H7.29167V7.29167ZM7.29167 11.4583H12.5312C11.6979 11.9792 10.9792 12.6979 10.4167 13.5417H7.29167V11.4583ZM7.29167 15.625H9.55208C9.4375 16.1458 9.375 16.6667 9.375 17.1875V17.7083H7.29167V15.625Z"/>
</svg>