<svg width="20" height="20" viewBox="0 0 15 15" fill="none">
    <path d="M3.75 10V8.125M7.5 3.75V1.875M11.25 10V8.125M6.25 9.375V11.875C6.25 12.2065 6.1183 12.5245 5.88388 12.7589C5.64946 12.9933 5.33152 13.125 5 13.125H2.5C2.16848 13.125 1.85054 12.9933 1.61612 12.7589C1.3817 12.5245 1.25 12.2065 1.25 11.875V9.375C1.25 9.04348 1.3817 8.72554 1.61612 8.49112C1.85054 8.2567 2.16848 8.125 2.5 8.125H5C5.33152 8.125 5.64946 8.2567 5.88388 8.49112C6.1183 8.72554 6.25 9.04348 6.25 9.375ZM10 3.125V5.625C10 5.95652 9.8683 6.27446 9.63388 6.50888C9.39946 6.7433 9.08152 6.875 8.75 6.875H6.25C5.91848 6.875 5.60054 6.7433 5.36612 6.50888C5.1317 6.27446 5 5.95652 5 5.625V3.125C5 2.79348 5.1317 2.47554 5.36612 2.24112C5.60054 2.0067 5.91848 1.875 6.25 1.875H8.75C9.08152 1.875 9.39946 2.0067 9.63388 2.24112C9.8683 2.47554 10 2.79348 10 3.125ZM13.75 9.375V11.875C13.75 12.2065 13.6183 12.5245 13.3839 12.7589C13.1495 12.9933 12.8315 13.125 12.5 13.125H10C9.66848 13.125 9.35054 12.9933 9.11612 12.7589C8.8817 12.5245 8.75 12.2065 8.75 11.875V9.375C8.75 9.04348 8.8817 8.72554 9.11612 8.49112C9.35054 8.2567 9.66848 8.125 10 8.125H12.5C12.8315 8.125 13.1495 8.2567 13.3839 8.49112C13.6183 8.72554 13.75 9.04348 13.75 9.375Z" stroke="currentColor" stroke-width="1.25" stroke-linecap="round" stroke-linejoin="round" />
</svg>
