<svg width="20" height="20" viewBox="0 0 44 34">
    <path d="M34.0127 30.8125C35.6426 30.8125 36.9582 29.3887 36.9582 27.625C36.9582 25.8613 35.6426 24.4375 34.0127 24.4375C32.3828 24.4375 31.0671 25.8613 31.0671 27.625C31.0671 29.3887 32.3828 30.8125 34.0127 30.8125ZM36.9582 11.6875H32.0489V17H40.8071L36.9582 11.6875ZM10.448 30.8125C12.0779 30.8125 13.3936 29.3887 13.3936 27.625C13.3936 25.8613 12.0779 24.4375 10.448 24.4375C8.81811 24.4375 7.50242 25.8613 7.50242 27.625C7.50242 29.3887 8.81811 30.8125 10.448 30.8125ZM37.9401 8.5L43.8313 17V27.625H39.9038C39.9038 31.1525 37.2724 34 34.0127 34C30.7529 34 28.1215 31.1525 28.1215 27.625H16.3392C16.3392 31.1525 13.7078 34 10.448 34C7.18823 34 4.55684 31.1525 4.55684 27.625H0.629395V4.25C0.629395 1.89125 2.37711 0 4.55684 0H32.0489V8.5H37.9401ZM4.55684 4.25V23.375H6.04927C7.12931 22.0787 8.70029 21.25 10.448 21.25C12.1957 21.25 13.7667 22.0787 14.8467 23.375H28.1215V4.25H4.55684ZM8.48428 13.8125L11.4299 10.625L14.3754 13.8125L21.2485 6.375L24.1941 9.5625L14.3754 20.1875L8.48428 13.8125Z" fill="currentColor" />
</svg>
