<svg width="20" height="20" viewBox="0 0 35 34">
    <path d="M32.7104 23.772H29.3255C29.5063 23.2275 29.6008 22.6533 29.605 22.074V13.584C29.605 12.233 29.1142 10.9373 28.2407 9.98202C27.3671 9.0267 26.1823 8.49002 24.9469 8.49002H15.6306C14.3952 8.49002 13.2104 9.0267 12.3368 9.98202C11.4633 10.9373 10.9725 12.233 10.9725 13.584V22.074C10.9767 22.6533 11.0712 23.2275 11.252 23.772H9.41978C9.00797 23.772 8.61304 23.5931 8.32185 23.2747C8.03066 22.9563 7.86707 22.5244 7.86707 22.074V5.09401C7.86707 3.74299 7.3763 2.44731 6.50273 1.492C5.62916 0.536689 4.44435 0 3.20894 0H1.65623C1.24442 0 0.849483 0.178896 0.558294 0.497333C0.267104 0.815771 0.103516 1.24766 0.103516 1.698C0.103516 2.14834 0.267104 2.58024 0.558294 2.89867C0.849483 3.21711 1.24442 3.39601 1.65623 3.39601H3.20894C3.62074 3.39601 4.01568 3.5749 4.30687 3.89334C4.59806 4.21178 4.76165 4.64367 4.76165 5.09401V22.074C4.76737 23.1894 5.10771 24.272 5.73042 25.1554C6.35312 26.0388 7.22376 26.6743 8.20866 26.9643C7.92271 27.7293 7.81126 28.5589 7.88394 29.3816C7.95662 30.2042 8.21124 30.9952 8.62583 31.6862C9.04043 32.3772 9.60254 32.9475 10.2637 33.3479C10.9248 33.7484 11.6651 33.9668 12.4207 33.9846C13.1763 34.0023 13.9244 33.8187 14.6007 33.4496C15.2769 33.0805 15.8608 32.537 16.3021 31.8661C16.7434 31.1951 17.0287 30.4168 17.1336 29.5983C17.2384 28.7799 17.1596 27.9458 16.9038 27.168H22.1209C21.8656 27.9375 21.7835 28.7628 21.8817 29.5743C21.9799 30.3858 22.2555 31.1594 22.6851 31.8297C23.1147 32.5 23.6856 33.0472 24.3496 33.425C25.0136 33.8028 25.7511 34 26.4996 34C27.2481 34 27.9855 33.8028 28.6495 33.425C29.3135 33.0472 29.8845 32.5 30.3141 31.8297C30.7437 31.1594 31.0193 30.3858 31.1175 29.5743C31.2157 28.7628 31.1336 27.9375 30.8782 27.168H32.7104C33.1222 27.168 33.5172 26.9892 33.8084 26.6707C34.0996 26.3523 34.2631 25.9204 34.2631 25.47C34.2631 25.0197 34.0996 24.5878 33.8084 24.2694C33.5172 23.9509 33.1222 23.772 32.7104 23.772ZM12.5252 30.5641C12.2181 30.5641 11.9179 30.4645 11.6626 30.2779C11.4072 30.0913 11.2082 29.8261 11.0907 29.5158C10.9732 29.2056 10.9424 28.8642 11.0023 28.5348C11.0622 28.2054 11.2101 27.9028 11.4273 27.6654C11.6444 27.4279 11.9211 27.2662 12.2223 27.2007C12.5235 27.1352 12.8357 27.1688 13.1194 27.2973C13.4031 27.4258 13.6456 27.6435 13.8162 27.9227C13.9868 28.2019 14.0779 28.5302 14.0779 28.8661C14.0779 29.3164 13.9143 29.7483 13.6231 30.0667C13.3319 30.3852 12.937 30.5641 12.5252 30.5641ZM15.6306 23.772C15.2188 23.772 14.8239 23.5931 14.5327 23.2747C14.2415 22.9563 14.0779 22.5244 14.0779 22.074V13.584C14.0779 13.1337 14.2415 12.7018 14.5327 12.3834C14.8239 12.0649 15.2188 11.886 15.6306 11.886H24.9469C25.3587 11.886 25.7536 12.0649 26.0448 12.3834C26.336 12.7018 26.4996 13.1337 26.4996 13.584V22.074C26.4996 22.5244 26.336 22.9563 26.0448 23.2747C25.7536 23.5931 25.3587 23.772 24.9469 23.772H15.6306ZM26.4996 30.5641C26.1925 30.5641 25.8923 30.4645 25.6369 30.2779C25.3816 30.0913 25.1826 29.8261 25.0651 29.5158C24.9476 29.2056 24.9168 28.8642 24.9767 28.5348C25.0366 28.2054 25.1845 27.9028 25.4017 27.6654C25.6188 27.4279 25.8955 27.2662 26.1967 27.2007C26.4979 27.1352 26.8101 27.1688 27.0938 27.2973C27.3775 27.4258 27.62 27.6435 27.7906 27.9227C27.9612 28.2019 28.0523 28.5302 28.0523 28.8661C28.0523 29.3164 27.8887 29.7483 27.5975 30.0667C27.3063 30.3852 26.9114 30.5641 26.4996 30.5641Z" fill="currentColor" />
</svg>
