<svg width="20" height="20" viewBox="0 0 33 34">
    <path fill-rule="evenodd" clip-rule="evenodd" d="M21.2665 17.6314C21.0005 16.8947 20.5078 16.2569 19.8564 15.8058C19.2049 15.3546 18.4267 15.1124 17.6289 15.1124V14.1678H15.7002V15.1124C14.6771 15.1124 13.696 15.5104 12.9726 16.2189C12.2492 16.9275 11.8428 17.8884 11.8428 18.8905C11.8428 19.8925 12.2492 20.8534 12.9726 21.562C13.696 22.2705 14.6771 22.6686 15.7002 22.6686V26.4466C14.8612 26.4466 14.1466 25.9224 13.8805 25.1876C13.841 25.0674 13.7773 24.9561 13.6931 24.8604C13.609 24.7648 13.5061 24.6866 13.3905 24.6305C13.275 24.5744 13.1491 24.5416 13.0204 24.534C12.8917 24.5265 12.7628 24.5442 12.6412 24.5863C12.5196 24.6284 12.4079 24.6939 12.3126 24.779C12.2173 24.8641 12.1405 24.967 12.0865 25.0818C12.0326 25.1965 12.0027 25.3206 11.9986 25.4468C11.9945 25.5731 12.0163 25.6988 12.0626 25.8167C12.3287 26.5534 12.8213 27.1912 13.4727 27.6423C14.1242 28.0934 14.9024 28.3357 15.7002 28.3357V29.2802H17.6289V28.3357C18.652 28.3357 19.6331 27.9376 20.3565 27.2291C21.0799 26.5206 21.4863 25.5596 21.4863 24.5576C21.4863 23.5556 21.0799 22.5946 20.3565 21.8861C19.6331 21.1776 18.652 20.7795 17.6289 20.7795V17.0014C18.0278 17.0013 18.4169 17.1223 18.7426 17.3478C19.0683 17.5733 19.3147 17.8922 19.4477 18.2605C19.5329 18.4967 19.7104 18.6901 19.9411 18.7982C20.0554 18.8517 20.1793 18.8826 20.3058 18.8892C20.4322 18.8958 20.5588 18.8779 20.6782 18.8366C20.7976 18.7953 20.9076 18.7314 21.0018 18.6485C21.096 18.5655 21.1726 18.4653 21.2272 18.3533C21.2818 18.2414 21.3134 18.1201 21.3201 17.9962C21.3269 17.8723 21.3086 17.7484 21.2665 17.6314V17.6314ZM15.7002 17.0014C15.1887 17.0014 14.6981 17.2004 14.3364 17.5547C13.9747 17.909 13.7715 18.3895 13.7715 18.8905C13.7715 19.3915 13.9747 19.872 14.3364 20.2262C14.6981 20.5805 15.1887 20.7795 15.7002 20.7795V17.0014ZM17.6289 26.4466C18.1404 26.4466 18.631 26.2476 18.9927 25.8934C19.3544 25.5391 19.5576 25.0586 19.5576 24.5576C19.5576 24.0566 19.3544 23.5761 18.9927 23.2218C18.631 22.8676 18.1404 22.6686 17.6289 22.6686V26.4466Z" fill="currentColor" />
    <path fill-rule="evenodd" clip-rule="evenodd" d="M6.20416 2.4756C8.57069 1.34122 12.4532 0 16.7021 0C20.8624 0 24.6427 1.2855 26.9967 2.40476L27.1297 2.46804C27.8395 2.81185 28.4123 3.13676 28.8154 3.40028L25.2531 8.50071C33.4656 16.7237 39.8091 34 16.7021 34C-6.40482 34 -0.231965 17.0373 8.05186 8.50071L4.51267 3.40028C4.78559 3.22555 5.13179 3.02247 5.54453 2.80712C5.74898 2.69945 5.96885 2.58894 6.20416 2.47654V2.4756ZM22.9637 8.4327L25.8153 4.34953C23.1633 4.53654 20.008 5.14671 16.9702 6.00811C14.8004 6.62205 12.3895 6.52854 10.1571 6.12523C9.59448 6.02308 9.03577 5.90148 8.48197 5.76065L10.3335 8.43081C14.3019 9.81454 18.9944 9.81454 22.9637 8.4327V8.4327ZM9.2197 10.0403C13.8631 11.7971 19.4438 11.7971 24.0872 10.0384C26.0254 12.0395 27.6468 14.3137 28.8974 16.7851C30.2012 19.3901 30.911 21.9942 30.7953 24.2384C30.6834 26.4041 29.8135 28.2545 27.827 29.6297C25.7565 31.0625 22.2742 32.111 16.7012 32.111C11.1224 32.111 7.62369 31.0805 5.53393 29.6637C3.53289 28.3055 2.65436 26.4806 2.52995 24.3441C2.39977 22.1245 3.0941 19.5337 4.39309 16.9107C5.63229 14.4096 7.36138 12.0021 9.2197 10.0403V10.0403ZM8.11069 3.69875C8.88218 3.92355 9.68838 4.11906 10.5062 4.26736C12.5795 4.64139 14.6587 4.69617 16.4331 4.19274C18.5009 3.60274 20.604 3.13872 22.7303 2.80334C20.9559 2.28008 18.8806 1.88905 16.7012 1.88905C13.379 1.88905 10.2805 2.79673 8.11069 3.69875V3.69875Z" fill="currentColor" />
</svg>
