<svg width="20" height="20" viewBox="0 0 35 34">
    <path d="M18.7342 0.507656C17.0573 -0.169219 15.1867 -0.169219 13.5098 0.507656L1.94173 5.18105C1.38294 5.40654 0.903838 5.79566 0.566132 6.2983C0.228426 6.80093 0.0475771 7.39406 0.046875 8.00131V23.5036C0.0467744 24.1115 0.227249 24.7056 0.565006 25.209C0.902764 25.7124 1.3823 26.1022 1.94173 26.3279L13.5098 30.9973C14.3882 31.3522 15.3287 31.5246 16.2747 31.5041C15.7856 30.8377 15.3718 30.1182 15.0409 29.359C14.7736 29.2997 14.5115 29.2183 14.2573 29.1157L2.68721 24.4464C2.50065 24.371 2.3408 24.2408 2.22832 24.0727C2.11584 23.9047 2.05591 23.7064 2.05627 23.5036V8.12702L15.1173 13.3985V20.2251C15.6209 19.1213 16.2996 18.1077 17.1267 17.2244V13.3965L30.1877 8.12499V14.9394C30.9071 15.3105 31.5802 15.7585 32.1971 16.2735V8.00131C32.1972 7.39337 32.0167 6.79935 31.679 6.29592C31.3412 5.79249 30.8617 5.40275 30.3023 5.177L18.7342 0.507656ZM14.2573 2.39324C15.455 1.90983 16.791 1.90983 17.9887 2.39324L28.4878 6.63072L23.9084 8.47575L11.5426 3.48809L14.2553 2.39324H14.2573ZM8.83796 4.57686L21.2037 9.56654L16.122 11.6204L3.75621 6.62869L8.83796 4.57888V4.57686ZM25.1643 34C27.5624 34 29.8623 33.0387 31.5581 31.3277C33.2538 29.6167 34.2065 27.296 34.2065 24.8762C34.2065 22.4565 33.2538 20.1358 31.5581 18.4248C29.8623 16.7137 27.5624 15.7525 25.1643 15.7525C22.7661 15.7525 20.4662 16.7137 18.7704 18.4248C17.0747 20.1358 16.122 22.4565 16.122 24.8762C16.122 27.296 17.0747 29.6167 18.7704 31.3277C20.4662 33.0387 22.7661 34 25.1643 34ZM23.1549 26.484L28.4717 21.1193C28.6601 20.9289 28.9157 20.8219 29.1823 20.8217C29.3143 20.8216 29.4451 20.8477 29.5671 20.8986C29.6891 20.9495 29.7999 21.0241 29.8934 21.1182C29.9868 21.2124 30.0609 21.3241 30.1115 21.4472C30.1621 21.5702 30.1882 21.7021 30.1883 21.8353C30.1884 21.9685 30.1625 22.1004 30.112 22.2235C30.0616 22.3466 29.9876 22.4585 29.8944 22.5527L23.8662 28.6352C23.7729 28.7296 23.662 28.8045 23.5399 28.8556C23.4179 28.9067 23.287 28.933 23.1549 28.933C23.0227 28.933 22.8919 28.9067 22.7698 28.8556C22.6477 28.8045 22.5369 28.7296 22.4435 28.6352L20.4341 26.6077C20.2458 26.4174 20.14 26.1593 20.1402 25.8903C20.1404 25.6213 20.2465 25.3633 20.4352 25.1733C20.6238 24.9832 20.8796 24.8765 21.1462 24.8767C21.4128 24.8769 21.6684 24.9839 21.8568 25.1743L23.1549 26.484Z" fill="currentColor"/>
</svg>
