<svg width="20" height="20" viewBox="0 0 16 15" fill="none">
    <path d="M10.2872 5.1709H9.59696C9.44685 5.1709 9.30409 5.24268 9.21579 5.36572L6.90224 8.55908L5.85438 7.11182C5.76607 6.99023 5.62479 6.91699 5.4732 6.91699H4.78296C4.6873 6.91699 4.63138 7.02539 4.6873 7.10303L6.52107 9.63428C6.56439 9.69446 6.62149 9.74349 6.68765 9.77732C6.75382 9.81115 6.82712 9.8288 6.90151 9.8288C6.97589 9.8288 7.0492 9.81115 7.11536 9.77732C7.18152 9.74349 7.23862 9.69446 7.28194 9.63428L10.3814 5.35693C10.4388 5.2793 10.3829 5.1709 10.2872 5.1709V5.1709Z" fill="currentColor" />
    <path d="M7.53569 0.9375C3.89466 0.9375 0.942383 3.87598 0.942383 7.5C0.942383 11.124 3.89466 14.0625 7.53569 14.0625C11.1767 14.0625 14.129 11.124 14.129 7.5C14.129 3.87598 11.1767 0.9375 7.53569 0.9375ZM7.53569 12.9492C4.51278 12.9492 2.06089 10.5088 2.06089 7.5C2.06089 4.49121 4.51278 2.05078 7.53569 2.05078C10.5586 2.05078 13.0105 4.49121 13.0105 7.5C13.0105 10.5088 10.5586 12.9492 7.53569 12.9492Z" fill="currentColor" />
</svg>
