<svg width="20" height="20" viewBox="0 0 63 63" fill="none">
    <path fill-rule="evenodd" clip-rule="evenodd" d="M31.5 59.85C47.1571 59.85 59.85 47.1571 59.85 31.5C59.85 15.8429 47.1571 3.15 31.5 3.15C15.8429 3.15 3.15 15.8429 3.15 31.5C3.15 47.1571 15.8429 59.85 31.5 59.85ZM31.5 63C48.8975 63 63 48.8975 63 31.5C63 14.1026 48.8975 0 31.5 0C14.1026 0 0 14.1026 0 31.5C0 48.8975 14.1026 63 31.5 63Z" fill="currentColor" />
    <path d="M12.5996 49.8173C12.5996 48.1903 13.8155 46.8154 15.4346 46.6358C27.5857 45.2908 35.4686 45.412 47.593 46.6657C48.1984 46.7293 48.7722 46.9678 49.2444 47.3522C49.7165 47.7365 50.0664 48.25 50.2515 48.83C50.4366 49.4099 50.4488 50.0312 50.2866 50.618C50.1243 51.2048 49.7948 51.7316 49.3381 52.1341C35.0292 64.6066 26.8518 64.4349 13.6076 52.1467C12.9619 51.5482 12.5996 50.6977 12.5996 49.8189V49.8173Z" fill="currentColor" />
    <path fill-rule="evenodd" clip-rule="evenodd" d="M47.4315 48.231C35.4033 46.9868 27.6338 46.8702 15.6071 48.2011C15.2112 48.2472 14.8462 48.4378 14.5821 48.7362C14.3179 49.0347 14.1731 49.4201 14.1754 49.8186C14.1754 50.2691 14.3628 50.6959 14.6794 50.992C21.244 57.0809 26.2178 59.8325 31.0799 59.8498C35.9592 59.8671 41.2008 57.1376 48.3041 50.9479C48.5297 50.747 48.6922 50.4849 48.7717 50.1935C48.8512 49.902 48.8443 49.5938 48.7519 49.3061C48.6595 49.0185 48.4855 48.764 48.2511 48.5734C48.0167 48.3828 47.732 48.2644 47.4315 48.2326V48.231ZM15.2621 45.07C27.5408 43.7108 35.5387 43.8336 47.7575 45.0983C48.6684 45.1934 49.5317 45.552 50.2419 46.1302C50.9521 46.7084 51.4782 47.481 51.756 48.3537C52.0338 49.2263 52.0511 50.161 51.8059 51.0433C51.5606 51.9256 51.0635 52.7173 50.3752 53.3214C43.1696 59.6025 37.1688 63.0234 31.0704 62.9998C24.9547 62.9777 19.2186 59.4986 12.539 53.3009C12.0607 52.8555 11.6795 52.3162 11.4191 51.7167C11.1586 51.1173 11.0246 50.4706 11.0254 49.817C11.0231 48.6428 11.4541 47.5089 12.2359 46.6327C13.0177 45.7565 14.0952 45.1995 15.2621 45.0684V45.07Z" fill="currentColor" />
    <path d="M44.1004 25.2C44.1004 28.5417 42.7729 31.7466 40.4099 34.1095C38.047 36.4725 34.8421 37.8 31.5004 37.8C28.1587 37.8 24.9538 36.4725 22.5908 34.1095C20.2279 31.7466 18.9004 28.5417 18.9004 25.2C18.9004 21.8582 20.2279 18.6534 22.5908 16.2904C24.9538 13.9275 28.1587 12.6 31.5004 12.6C34.8421 12.6 38.047 13.9275 40.4099 16.2904C42.7729 18.6534 44.1004 21.8582 44.1004 25.2V25.2Z" fill="currentColor" />
    <path fill-rule="evenodd" clip-rule="evenodd" d="M31.5004 34.65C34.0067 34.65 36.4103 33.6544 38.1826 31.8821C39.9548 30.1099 40.9504 27.7063 40.9504 25.2C40.9504 22.6937 39.9548 20.29 38.1826 18.5178C36.4103 16.7456 34.0067 15.75 31.5004 15.75C28.9941 15.75 26.5904 16.7456 24.8182 18.5178C23.046 20.29 22.0504 22.6937 22.0504 25.2C22.0504 27.7063 23.046 30.1099 24.8182 31.8821C26.5904 33.6544 28.9941 34.65 31.5004 34.65V34.65ZM31.5004 37.8C34.8421 37.8 38.047 36.4725 40.4099 34.1095C42.7729 31.7466 44.1004 28.5417 44.1004 25.2C44.1004 21.8582 42.7729 18.6534 40.4099 16.2904C38.047 13.9275 34.8421 12.6 31.5004 12.6C28.1587 12.6 24.9538 13.9275 22.5908 16.2904C20.2279 18.6534 18.9004 21.8582 18.9004 25.2C18.9004 28.5417 20.2279 31.7466 22.5908 34.1095C24.9538 36.4725 28.1587 37.8 31.5004 37.8V37.8Z" fill="currentColor" />
</svg>
